<?xml version="1.0" encoding="utf-8"?>
<!-- Generator: Adobe Illustrator 19.1.0, SVG Export Plug-In . SVG Version: 6.00 Build 0)  -->
<svg version="1.1" id="Layer_1" xmlns="http://www.w3.org/2000/svg" xmlns:xlink="http://www.w3.org/1999/xlink" x="0px" y="0px"
	 viewBox="578.5 -206.6 847.2 149" style="enable-background:new 578.5 -206.6 847.2 149;" xml:space="preserve">
<style type="text/css">
	.st0{fill:#231F20;}
	.st1{fill:none;stroke:#231F20;stroke-width:17;stroke-miterlimit:10;}
</style>
<path id="object" class="st0" d="M722.7-202.3L722.7-202.3L722.7-202.3c0,0,0,0-0.1,0c-0.1,0-0.1,0-0.2,0h-0.1h-0.1
	c0,0-0.1,0-0.1,0.1c0,0-0.1,0-0.1,0.1c-0.1,0-0.1,0.1-0.2,0.1c0,0,0,0-0.1,0l0,0l0,0L580-62.5v3.4l0,0c0.4,0,0.7-0.2,1-0.4
	l142.2-140h431.6"/>
<path id="outline" class="st1" d="M722.7-202.3L722.7-202.3L722.7-202.3c0,0,0,0-0.1,0c-0.1,0-0.1,0-0.2,0h-0.1h-0.1
	c0,0-0.1,0-0.1,0.1c0,0-0.1,0-0.1,0.1c-0.1,0-0.1,0.1-0.2,0.1c0,0,0,0-0.1,0l0,0l0,0L580-62.5v3.4l0,0c0.4,0,0.7-0.2,1-0.4
	l142.2-140h431.6"/>
</svg>
