<?xml version="1.0" encoding="utf-8"?>
<!-- Generator: Adobe Illustrator 19.1.0, SVG Export Plug-In . SVG Version: 6.00 Build 0)  -->
<svg version="1.1" id="Layer_1" xmlns="http://www.w3.org/2000/svg" xmlns:xlink="http://www.w3.org/1999/xlink" x="0px" y="0px"
	 viewBox="0 0 1280 640" style="enable-background:new 0 0 1280 640;" xml:space="preserve">
<style type="text/css">
	.st0{fill:#231F20;}
	.st1{display:none;}
	.st2{display:inline;fill:none;stroke:#231F20;stroke-miterlimit:10;}
	.st3{fill:none;stroke:#231F20;stroke-width:1.0145;stroke-miterlimit:10;}
	.st4{fill:none;stroke:#000000;stroke-miterlimit:10;}
	.st5{fill:none;}
	.st6{font-family:'MyriadPro-Regular';}
	.st7{font-size:25px;}
</style>
<g id="object">
	<polygon class="st0" points="1074.4,0 1071.6,0 1280.5,206.1 1280.5,203.3 	"/>
	<path class="st0" d="M677.1,574.2h-4.9H663h-7.5h-2.2v-0.1H505c-0.3,0-0.6,0.1-0.8,0.3c-2.3,1.7-5,2.6-7.9,2.6
		c-2.8,0-5.5-0.9-7.8-2.5l-0.4-0.4c-0.3-0.3-0.7-0.5-1.1-0.5h-1.6c-20.1-2.8-37.4-16.2-45.3-34.9c-1.5-4.1-2.2-8.4-2.2-12.8
		c0-2.2,0.5-4.4,1-6.5c0.1-0.3,0.1-0.6,0.2-0.9c0.1-0.2,0.2-0.4,0.2-0.6c0.6-4.3,4.4-7.5,8.7-7.5c4.9,0,8.8,4,8.8,8.8
		c0,0.5,0,1-0.1,1.4c-0.1,0.5-0.2,1.1-0.4,1.6c0,0.1,0,0.1-0.1,0.2c-0.2,1.2-0.3,2.3-0.3,3.5c0,10.1,8.5,18.3,18.9,18.3
		c5.3,0,10.3-2.2,13.9-5.9c3.2-3.4,5-7.8,5-12.4c0-1.5-0.2-3-0.6-4.5c-2.1-8.1-9.7-13.8-18.3-13.8c-1,0-2,0.1-3,0.2
		c-0.1,0-0.1,0-0.2,0c-0.5,0.1-0.9,0.2-1.4,0.3c-0.5,0.1-1,0.1-1.5,0.1c-6.1,0-11-4.9-11-11c0-1.2,0.2-2.4,0.6-3.6
		c0,0.3-0.1,0.7-0.1,1c0,4.8,3.9,8.8,8.8,8.8c4.8,0,8.8-3.9,8.8-8.8c0-4.3-3.2-8-7.3-8.7c1.8-0.4,4-0.7,6.3-0.7
		c14.8,0,28.4,8.1,35.5,21.2c0.4,0.7,0.7,1.4,1.1,2.2c0.5,1.1,1,2.2,1.4,3.3c0,0.1,0.1,0.2,0.1,0.3c4.3,6.8,11.7,10.9,19.8,10.9
		h120.6h2.2h4.7h2.8v-1.4c0-0.8-0.6-1.4-1.4-1.4H532.7c-7,0-13.5-3.5-17.3-9.5c-0.4-1.1-0.9-2.3-1.4-3.4c-0.4-0.8-0.8-1.6-1.2-2.3
		c-7.6-14-22.1-22.7-37.9-22.7c-3.1,0-6,0.6-8.2,1.1c-0.2,0-0.3,0.1-0.5,0.1c-0.2,0-0.4,0.1-0.6,0.1c-0.1,0-0.2,0.1-0.3,0.1
		c-0.2,0.1-0.5,0.1-0.7,0.2c-0.2,0-0.3,0.1-0.5,0.1c0,0-0.1,0-0.1,0.1c-3.2,1.2-5.8,3.4-7.4,6.4c-1.1,2-1.7,4.3-1.7,6.6
		c0,7.6,6.2,13.8,13.8,13.8c0.6,0,1.2,0,1.8-0.1c0.6-0.1,1.2-0.2,1.7-0.3c0.8-0.1,1.7-0.2,2.5-0.2c7.4,0,13.8,4.8,15.6,11.7
		c0.3,1.2,0.5,2.5,0.5,3.8c0,3.9-1.5,7.6-4.2,10.5c-3,3.2-7.4,5-11.9,5c-8.9,0-16.1-7-16.1-15.5c0-0.9,0.1-1.9,0.3-2.9
		c0.2-0.6,0.4-1.3,0.5-2c0.1-0.6,0.2-1.3,0.2-1.9c0-6.4-5.2-11.6-11.6-11.6c-5.5,0-10.2,3.9-11.4,9.2c-0.1,0.1-0.1,0.3-0.2,0.4
		c-0.1,0.5-0.2,1-0.4,1.6c-0.5,2.3-1.1,4.7-1.1,7.2c0,4.7,0.8,9.3,2.4,13.8c0,0,0,0,0,0.1c8.3,19.7,26.5,33.7,47.6,36.6
		c0.1,0,0.1,0,0.2,0h1l0.1,0.1c0.1,0.1,0.2,0.2,0.2,0.2c2.8,2,6.1,3.1,9.6,3.1c3.3,0,6.5-1,9.2-2.9h9.3c0.1,0,0.2,0.1,0.4,0.1h621.4
		h0h0c0,0,0,0,0.1,0c0.1,0,0.1,0,0.2,0c0,0,0.1,0,0.1,0c0,0,0.1,0,0.1,0c0,0,0.1,0,0.1-0.1c0,0,0.1,0,0.1-0.1c0.1,0,0.1-0.1,0.2-0.1
		c0,0,0,0,0.1,0l0,0c0,0,0,0,0,0l143.1-141.1v-3.9l-144.7,142.6H677.1z M467.1,488.7c3.3,0,6,2.7,6,6c0,3.3-2.7,6-6,6
		c-3.3,0-6-2.7-6-6C461.1,491.4,463.8,488.7,467.1,488.7z"/>
	<path class="st0" d="M1.5,205.5l142.2-140h431.6h27.1h14.1h0.7h1.4h7.6v0.1h2.7h145.7c0.3,0,0.6-0.1,0.8-0.3c2.3-1.7,5-2.6,7.9-2.6
		c2.8,0,5.5,0.9,7.8,2.5l0.4,0.4c0.3,0.3,0.7,0.5,1.1,0.5h1.6c20.1,2.8,37.4,16.2,45.3,34.9c1.5,4.1,2.2,8.4,2.2,12.8
		c0,2.2-0.5,4.4-1,6.5c-0.1,0.3-0.1,0.6-0.2,0.9c-0.1,0.2-0.2,0.4-0.2,0.6c-0.6,4.3-4.4,7.5-8.7,7.5c-4.9,0-8.8-4-8.8-8.8
		c0-0.5,0-1,0.1-1.4c0.1-0.5,0.2-1.1,0.4-1.6c0-0.1,0-0.1,0.1-0.2c0.2-1.2,0.3-2.3,0.3-3.5c0-10.1-8.5-18.3-18.9-18.3
		c-5.3,0-10.3,2.2-13.9,5.9c-3.2,3.4-5,7.8-5,12.4c0,1.5,0.2,3,0.6,4.5c2.1,8.1,9.7,13.8,18.3,13.8c1,0,2-0.1,3-0.2
		c0.1,0,0.1,0,0.2,0c0.5-0.1,0.9-0.2,1.4-0.3c0.5-0.1,1-0.1,1.5-0.1c6.1,0,11,4.9,11,11c0,1.2-0.2,2.4-0.6,3.6c0-0.3,0.1-0.7,0.1-1
		c0-4.8-3.9-8.8-8.8-8.8c-4.8,0-8.8,3.9-8.8,8.8c0,4.3,3.2,8,7.3,8.7c-1.8,0.4-4,0.7-6.3,0.7c-14.8,0-28.4-8.1-35.5-21.2
		c-0.4-0.7-0.7-1.4-1.1-2.2c-0.5-1.1-1-2.2-1.4-3.3c0-0.1-0.1-0.2-0.1-0.3c-4.3-6.8-11.7-10.9-19.8-10.9H629h-2.7h-6.9h-0.7h-1.4
		h-0.7v1.4c0,0.8,0.6,1.4,1.4,1.4h128.9c7,0,13.5,3.5,17.3,9.5c0.4,1.1,0.9,2.3,1.4,3.4c0.4,0.8,0.8,1.6,1.2,2.3
		c7.6,14,22.1,22.7,37.9,22.7c3.1,0,6-0.6,8.2-1.1c0.2,0,0.3-0.1,0.5-0.1c0.2,0,0.4-0.1,0.6-0.1c0.1,0,0.2-0.1,0.3-0.1
		c0.2-0.1,0.5-0.1,0.7-0.2c0.2,0,0.3-0.1,0.5-0.1c0,0,0.1,0,0.1-0.1c3.2-1.2,5.8-3.4,7.4-6.4c1.1-2,1.7-4.3,1.7-6.6
		c0-7.6-6.2-13.8-13.8-13.8c-0.6,0-1.2,0-1.8,0.1c-0.6,0.1-1.2,0.2-1.7,0.3c-0.8,0.1-1.7,0.2-2.5,0.2c-7.4,0-13.8-4.8-15.6-11.7
		c-0.3-1.2-0.5-2.5-0.5-3.8c0-3.9,1.5-7.6,4.2-10.5c3-3.2,7.4-5,11.9-5c8.9,0,16.1,7,16.1,15.5c0,0.9-0.1,1.9-0.3,2.9
		c-0.2,0.6-0.4,1.3-0.5,2c-0.1,0.6-0.2,1.3-0.2,1.9c0,6.4,5.2,11.6,11.6,11.6c5.5,0,10.2-3.9,11.4-9.2c0.1-0.1,0.1-0.3,0.2-0.4
		c0.1-0.5,0.2-1,0.4-1.6c0.5-2.3,1.1-4.7,1.1-7.2c0-4.7-0.8-9.3-2.4-13.8c0,0,0,0,0-0.1c-8.3-19.7-26.5-33.7-47.6-36.6
		c-0.1,0-0.1,0-0.2,0h-1l-0.1-0.1c-0.1-0.1-0.2-0.2-0.2-0.2c-2.8-2-6.1-3.1-9.6-3.1c-3.3,0-6.5,1-9.2,2.9h-9.3
		c-0.1,0-0.2-0.1-0.4-0.1H143.2c0,0,0,0,0,0l0,0c0,0,0,0-0.1,0c-0.1,0-0.1,0-0.2,0c0,0-0.1,0-0.1,0c0,0-0.1,0-0.1,0
		c0,0-0.1,0-0.1,0.1c0,0-0.1,0-0.1,0.1c-0.1,0-0.1,0.1-0.2,0.1c0,0,0,0-0.1,0l0,0c0,0,0,0,0,0L0.5,202.5v3.4h0
		C0.9,205.9,1.2,205.7,1.5,205.5z M812.5,150.8c-3.3,0-6-2.7-6-6s2.7-6,6-6c3.3,0,6,2.7,6,6S815.8,150.8,812.5,150.8z"/>
	<polygon class="st0" points="0.5,436.8 205.9,640 208.7,640 0.5,434 	"/>
	<path class="st0" d="M329.2,508.8h-138l-60.7-59.7l-1.4,1.4l61.3,60.3h138.7c0.5,0,1-0.4,1-1S329.7,508.8,329.2,508.8z"/>
	<path class="st0" d="M329.2,521.9H185l-60.7-59.7l-1.4,1.4l61.2,60.3h145c0.5,0,1-0.4,1-1C330.2,522.3,329.7,521.9,329.2,521.9z"/>
	<path class="st0" d="M951.8,523.8C951.8,523.8,951.9,523.8,951.8,523.8l145,0l61.2-60.3l-1.4-1.4l-60.7,59.7H951.8v0
		c-0.5,0-1,0.4-1,1S951.3,523.8,951.8,523.8z"/>
	<path class="st0" d="M951.8,510.8c0.1,0,0.1,0,0.2,0h138.5l61.3-60.3l-1.4-1.4l-60.7,59.7h-138v0c-0.5,0-1,0.4-1,1
		C950.8,510.3,951.3,510.8,951.8,510.8z"/>
	<path class="st0" d="M329.2,118.9H184.3L123,179.2l1.4,1.4l60.7-59.7h144.2c0.5,0,1-0.4,1-1S329.7,118.9,329.2,118.9z"/>
	<path class="st0" d="M329.2,132H190.5l-61.3,60.3l1.4,1.4l60.7-59.7h138c0.5,0,1-0.4,1-1C330.2,132.5,329.7,132,329.2,132z"/>
	<path class="st0" d="M952,120.9h144.2l60.7,59.7l1.4-1.4l-61.3-60.3H952c-0.5,0-1,0.4-1,1S951.4,120.9,952,120.9z"/>
	<path class="st0" d="M952,134h138l60.7,59.7l1.4-1.4l-61.3-60.3H952c-0.5,0-1,0.4-1,1C951,133.6,951.4,134,952,134z"/>
</g>
<g id="outline" class="st1">
	<polygon class="st2" points="1074.4,320 1071.6,320 1280.5,526.1 1280.5,523.3 	"/>
	<path class="st2" d="M677.1,894.2h-4.9H663h-7.5h-2.2v-0.1H505c-0.3,0-0.6,0.1-0.8,0.3c-2.3,1.7-5,2.6-7.9,2.6
		c-2.8,0-5.5-0.9-7.8-2.5l-0.4-0.4c-0.3-0.3-0.7-0.5-1.1-0.5h-1.6c-20.1-2.8-37.4-16.2-45.3-34.9c-1.5-4.1-2.2-8.4-2.2-12.8
		c0-2.2,0.5-4.4,1-6.5c0.1-0.3,0.1-0.6,0.2-0.9c0.1-0.2,0.2-0.4,0.2-0.6c0.6-4.3,4.4-7.5,8.7-7.5c4.9,0,8.8,4,8.8,8.8
		c0,0.5,0,1-0.1,1.4c-0.1,0.5-0.2,1.1-0.4,1.6c0,0.1,0,0.1-0.1,0.2c-0.2,1.2-0.3,2.3-0.3,3.5c0,10.1,8.5,18.3,18.9,18.3
		c5.3,0,10.3-2.2,13.9-5.9c3.2-3.4,5-7.8,5-12.4c0-1.5-0.2-3-0.6-4.5c-2.1-8.1-9.7-13.8-18.3-13.8c-1,0-2,0.1-3,0.2
		c-0.1,0-0.1,0-0.2,0c-0.5,0.1-0.9,0.2-1.4,0.3c-0.5,0.1-1,0.1-1.5,0.1c-6.1,0-11-4.9-11-11c0-1.2,0.2-2.4,0.6-3.6
		c0,0.3-0.1,0.7-0.1,1c0,4.8,3.9,8.8,8.8,8.8s8.8-3.9,8.8-8.8c0-4.3-3.2-8-7.3-8.7c1.8-0.4,4-0.7,6.3-0.7c14.8,0,28.4,8.1,35.5,21.2
		c0.4,0.7,0.7,1.4,1.1,2.2c0.5,1.1,1,2.2,1.4,3.3c0,0.1,0.1,0.2,0.1,0.3c4.3,6.8,11.7,10.9,19.8,10.9h120.6h2.2h4.7h2.8v-1.4
		c0-0.8-0.6-1.4-1.4-1.4H532.7c-7,0-13.5-3.5-17.3-9.5c-0.4-1.1-0.9-2.3-1.4-3.4c-0.4-0.8-0.8-1.6-1.2-2.3
		c-7.6-14-22.1-22.7-37.9-22.7c-3.1,0-6,0.6-8.2,1.1c-0.2,0-0.3,0.1-0.5,0.1c-0.2,0-0.4,0.1-0.6,0.1c-0.1,0-0.2,0.1-0.3,0.1
		c-0.2,0.1-0.5,0.1-0.7,0.2c-0.2,0-0.3,0.1-0.5,0.1c0,0-0.1,0-0.1,0.1c-3.2,1.2-5.8,3.4-7.4,6.4c-1.1,2-1.7,4.3-1.7,6.6
		c0,7.6,6.2,13.8,13.8,13.8c0.6,0,1.2,0,1.8-0.1c0.6-0.1,1.2-0.2,1.7-0.3c0.8-0.1,1.7-0.2,2.5-0.2c7.4,0,13.8,4.8,15.6,11.7
		c0.3,1.2,0.5,2.5,0.5,3.8c0,3.9-1.5,7.6-4.2,10.5c-3,3.2-7.4,5-11.9,5c-8.9,0-16.1-7-16.1-15.5c0-0.9,0.1-1.9,0.3-2.9
		c0.2-0.6,0.4-1.3,0.5-2c0.1-0.6,0.2-1.3,0.2-1.9c0-6.4-5.2-11.6-11.6-11.6c-5.5,0-10.2,3.9-11.4,9.2c-0.1,0.1-0.1,0.3-0.2,0.4
		c-0.1,0.5-0.2,1-0.4,1.6c-0.5,2.3-1.1,4.7-1.1,7.2c0,4.7,0.8,9.3,2.4,13.8c0,0,0,0,0,0.1c8.3,19.7,26.5,33.7,47.6,36.6
		c0.1,0,0.1,0,0.2,0h1l0.1,0.1c0.1,0.1,0.2,0.2,0.2,0.2c2.8,2,6.1,3.1,9.6,3.1c3.3,0,6.5-1,9.2-2.9h9.3c0.1,0,0.2,0.1,0.4,0.1h621.4
		h0h0c0,0,0,0,0.1,0c0.1,0,0.1,0,0.2,0c0,0,0.1,0,0.1,0c0,0,0.1,0,0.1,0c0,0,0.1,0,0.1-0.1c0,0,0.1,0,0.1-0.1c0.1,0,0.1-0.1,0.2-0.1
		c0,0,0,0,0.1,0l0,0c0,0,0,0,0,0l143.1-141.1v-3.9l-144.7,142.6H677.1z M467.1,808.7c3.3,0,6,2.7,6,6s-2.7,6-6,6s-6-2.7-6-6
		S463.8,808.7,467.1,808.7z"/>
	<path class="st2" d="M1.5,525.5l142.2-140h431.6h27.1h14.1h0.7h1.4h7.6v0.1h2.7h145.7c0.3,0,0.6-0.1,0.8-0.3c2.3-1.7,5-2.6,7.9-2.6
		c2.8,0,5.5,0.9,7.8,2.5l0.4,0.4c0.3,0.3,0.7,0.5,1.1,0.5h1.6c20.1,2.8,37.4,16.2,45.3,34.9c1.5,4.1,2.2,8.4,2.2,12.8
		c0,2.2-0.5,4.4-1,6.5c-0.1,0.3-0.1,0.6-0.2,0.9c-0.1,0.2-0.2,0.4-0.2,0.6c-0.6,4.3-4.4,7.5-8.7,7.5c-4.9,0-8.8-4-8.8-8.8
		c0-0.5,0-1,0.1-1.4c0.1-0.5,0.2-1.1,0.4-1.6c0-0.1,0-0.1,0.1-0.2c0.2-1.2,0.3-2.3,0.3-3.5c0-10.1-8.5-18.3-18.9-18.3
		c-5.3,0-10.3,2.2-13.9,5.9c-3.2,3.4-5,7.8-5,12.4c0,1.5,0.2,3,0.6,4.5c2.1,8.1,9.7,13.8,18.3,13.8c1,0,2-0.1,3-0.2
		c0.1,0,0.1,0,0.2,0c0.5-0.1,0.9-0.2,1.4-0.3c0.5-0.1,1-0.1,1.5-0.1c6.1,0,11,4.9,11,11c0,1.2-0.2,2.4-0.6,3.6c0-0.3,0.1-0.7,0.1-1
		c0-4.8-3.9-8.8-8.8-8.8c-4.8,0-8.8,3.9-8.8,8.8c0,4.3,3.2,8,7.3,8.7c-1.8,0.4-4,0.7-6.3,0.7c-14.8,0-28.4-8.1-35.5-21.2
		c-0.4-0.7-0.7-1.4-1.1-2.2c-0.5-1.1-1-2.2-1.4-3.3c0-0.1-0.1-0.2-0.1-0.3c-4.3-6.8-11.7-10.9-19.8-10.9H629h-2.7h-6.9h-0.7h-1.4
		h-0.7v1.4c0,0.8,0.6,1.4,1.4,1.4h128.9c7,0,13.5,3.5,17.3,9.5c0.4,1.1,0.9,2.3,1.4,3.4c0.4,0.8,0.8,1.6,1.2,2.3
		c7.6,14,22.1,22.7,37.9,22.7c3.1,0,6-0.6,8.2-1.1c0.2,0,0.3-0.1,0.5-0.1c0.2,0,0.4-0.1,0.6-0.1c0.1,0,0.2-0.1,0.3-0.1
		c0.2-0.1,0.5-0.1,0.7-0.2c0.2,0,0.3-0.1,0.5-0.1c0,0,0.1,0,0.1-0.1c3.2-1.2,5.8-3.4,7.4-6.4c1.1-2,1.7-4.3,1.7-6.6
		c0-7.6-6.2-13.8-13.8-13.8c-0.6,0-1.2,0-1.8,0.1c-0.6,0.1-1.2,0.2-1.7,0.3c-0.8,0.1-1.7,0.2-2.5,0.2c-7.4,0-13.8-4.8-15.6-11.7
		c-0.3-1.2-0.5-2.5-0.5-3.8c0-3.9,1.5-7.6,4.2-10.5c3-3.2,7.4-5,11.9-5c8.9,0,16.1,7,16.1,15.5c0,0.9-0.1,1.9-0.3,2.9
		c-0.2,0.6-0.4,1.3-0.5,2c-0.1,0.6-0.2,1.3-0.2,1.9c0,6.4,5.2,11.6,11.6,11.6c5.5,0,10.2-3.9,11.4-9.2c0.1-0.1,0.1-0.3,0.2-0.4
		c0.1-0.5,0.2-1,0.4-1.6c0.5-2.3,1.1-4.7,1.1-7.2c0-4.7-0.8-9.3-2.4-13.8c0,0,0,0,0-0.1c-8.3-19.7-26.5-33.7-47.6-36.6
		c-0.1,0-0.1,0-0.2,0h-1l-0.1-0.1c-0.1-0.1-0.2-0.2-0.2-0.2c-2.8-2-6.1-3.1-9.6-3.1c-3.3,0-6.5,1-9.2,2.9h-9.3
		c-0.1,0-0.2-0.1-0.4-0.1H143.2c0,0,0,0,0,0l0,0c0,0,0,0-0.1,0c-0.1,0-0.1,0-0.2,0c0,0-0.1,0-0.1,0c0,0-0.1,0-0.1,0
		c0,0-0.1,0-0.1,0.1c0,0-0.1,0-0.1,0.1c-0.1,0-0.1,0.1-0.2,0.1c0,0,0,0-0.1,0l0,0c0,0,0,0,0,0L0.5,522.5v3.4h0
		C0.9,525.9,1.2,525.7,1.5,525.5z M812.5,470.8c-3.3,0-6-2.7-6-6s2.7-6,6-6s6,2.7,6,6S815.8,470.8,812.5,470.8z"/>
	<polygon class="st2" points="0.5,756.8 205.9,960 208.7,960 0.5,754 	"/>
	<path class="st2" d="M329.2,828.8h-138l-60.7-59.7l-1.4,1.4l61.3,60.3h138.7c0.5,0,1-0.4,1-1S329.7,828.8,329.2,828.8z"/>
	<path class="st2" d="M329.2,841.9H185l-60.7-59.7l-1.4,1.4l61.2,60.3h145c0.5,0,1-0.4,1-1C330.2,842.3,329.7,841.9,329.2,841.9z"/>
	<path class="st2" d="M951.8,843.8C951.8,843.8,951.9,843.8,951.8,843.8l145,0l61.2-60.3l-1.4-1.4l-60.7,59.7H951.8v0
		c-0.5,0-1,0.4-1,1S951.3,843.8,951.8,843.8z"/>
	<path class="st2" d="M951.8,830.8c0.1,0,0.1,0,0.2,0h138.5l61.3-60.3l-1.4-1.4l-60.7,59.7h-138v0c-0.5,0-1,0.4-1,1
		C950.8,830.3,951.3,830.8,951.8,830.8z"/>
	<path class="st2" d="M329.2,438.9H184.3L123,499.2l1.4,1.4l60.7-59.7h144.2c0.5,0,1-0.4,1-1S329.7,438.9,329.2,438.9z"/>
	<path class="st2" d="M329.2,452H190.5l-61.3,60.3l1.4,1.4l60.7-59.7h138c0.5,0,1-0.4,1-1S329.7,452,329.2,452z"/>
	<path class="st2" d="M952,440.9h144.2l60.7,59.7l1.4-1.4l-61.3-60.3H952c-0.5,0-1,0.4-1,1S951.4,440.9,952,440.9z"/>
	<path class="st2" d="M952,454h138l60.7,59.7l1.4-1.4l-61.3-60.3H952c-0.5,0-1,0.4-1,1S951.4,454,952,454z"/>
</g>
<line class="st3" x1="753.8" y1="117" x2="753.8" y2="0"/>
<line class="st3" x1="144.6" y1="117" x2="144.6" y2="0"/>
<rect x="728" y="-56.8" class="st5" width="245.5" height="51.5"/>
<text transform="matrix(1 0 0 1 728.0314 -35.825)" class="st6 st7">754</text>
<rect x="87" y="-62.8" class="st5" width="244" height="33.3"/>
<text transform="matrix(1 0 0 1 87.0327 -41.8865)" class="st6 st7">144</text>
<polyline class="st4" points="71.5,33.2 172.4,134.1 -29.4,134.8 "/>
<rect x="-84.2" y="45.7" class="st5" width="127.1" height="41.7"/>
<text transform="matrix(1 0 0 1 -84.1635 66.6702)" class="st6 st7">63</text>
<rect x="-90.2" y="186.4" class="st5" width="157.9" height="77.9"/>
<text transform="matrix(1 0 0 1 -90.1566 207.3128)" class="st6 st7">202</text>
<line class="st0" x1="183.6" y1="117.6" x2="328.8" y2="117.6"/>
</svg>
