<?xml version="1.0" encoding="utf-8"?>
<!-- Generator: Adobe Illustrator 19.1.0, SVG Export Plug-In . SVG Version: 6.00 Build 0)  -->
<svg version="1.1" id="Layer_1" xmlns="http://www.w3.org/2000/svg" xmlns:xlink="http://www.w3.org/1999/xlink" x="0px" y="0px"
	 viewBox="0 0 200 66.7" style="enable-background:new 0 0 200 66.7;" xml:space="preserve">
<style type="text/css">
	.st0{fill:none;stroke:#000000;stroke-miterlimit:10;}
</style>
<path id="object" d="M190.9,22.4L190.9,22.4c-0.3-0.1-0.6-0.1-0.9-0.1L40.8,0.8v0C38.4,0.3,35.9,0,33.3,0C14.9,0,0,14.9,0,33.3
	c0,18.4,14.9,33.3,33.3,33.3c2.6,0,5-0.3,7.4-0.8l150.1-21.4v-0.2c5.2-0.9,9.1-5.5,9.1-10.9C200,27.9,196.1,23.3,190.9,22.4z
	 M11.5,34.7c-0.8,0-1.4-0.6-1.4-1.4c0-0.8,0.6-1.4,1.4-1.4c0.8,0,1.4,0.6,1.4,1.4C12.9,34.1,12.3,34.7,11.5,34.7z"/>
<path id="outline" class="st0" d="M190.9,22.4L190.9,22.4c-0.3-0.1-0.6-0.1-0.9-0.1L40.8,0.8v0C38.4,0.3,35.9,0,33.3,0
	C14.9,0,0,14.9,0,33.3c0,18.4,14.9,33.3,33.3,33.3c2.6,0,5-0.3,7.4-0.8l150.1-21.4v-0.2c5.2-0.9,9.1-5.5,9.1-10.9
	C200,27.9,196.1,23.3,190.9,22.4z"/>
</svg>
