<?xml version="1.0" encoding="utf-8"?>
<!-- Generator: Adobe Illustrator 19.1.0, SVG Export Plug-In . SVG Version: 6.00 Build 0)  -->
<svg version="1.1" id="Layer_1" xmlns="http://www.w3.org/2000/svg" xmlns:xlink="http://www.w3.org/1999/xlink" x="0px" y="0px"
	 viewBox="12 32.7 144.3 46.3" style="enable-background:new 12 32.7 144.3 46.3;" xml:space="preserve">
<style type="text/css">
	.st0{fill:#E54746;}
	.st1{fill:none;stroke:#231F20;stroke-width:3;stroke-miterlimit:10;}
</style>
<g id="object">
	<path class="st0" d="M36.6,78.8L36.6,78.8L36.6,78.8c0.9-0.1,1.6-0.1,2.4-0.3L147.9,65l0,0c4.6-0.4,8.3-4.3,8.3-9.1
		c0-5-3.9-9-8.8-9.2L36.6,33l0,0c-0.5,0-1-0.1-1.6-0.1c-12.6,0-22.8,10.3-22.8,23s10.2,23,22.8,23C35.4,78.8,35.9,78.8,36.6,78.8z"
		/>
</g>
<path id="outline" class="st1" d="M34.9,32.8c-12.6,0-22.8,10.3-22.8,23s10.2,23,22.8,23c0.5,0,1,0,1.6-0.1l0,0h0.1
	c0.8-0.1,1.5-0.1,2.3-0.3l108.9-13.5l0,0c4.6-0.4,8.3-4.3,8.3-9.1c0-5-3.9-9-8.8-9.2L36.6,33l0,0C35.9,33,35.4,32.8,34.9,32.8z"/>
</svg>
